<svg width="157" height="56" viewBox="0 0 157 56" fill="none" xmlns="http://www.w3.org/2000/svg">
<path d="M80.543 1.96875C81.3398 1.96875 82.1953 2.0625 83.1094 2.25C84.0469 2.41406 84.9141 2.70703 85.7109 3.12891C86.5078 3.52734 87.1641 4.07812 87.6797 4.78125C88.1953 5.46094 88.4531 6.31641 88.4531 7.34766C88.4531 8.61328 88.0781 9.76172 87.3281 10.793C86.6016 11.8242 85.5703 12.7148 84.2344 13.4648C82.8984 14.1914 81.293 14.7656 79.418 15.1875C77.5664 15.5859 75.5156 15.7852 73.2656 15.7852C70.7344 15.7852 67.9922 15.6094 65.0391 15.2578C64.5 16.9453 64.0898 18.832 63.8086 20.918C63.5508 23.0039 63.4102 25.3242 63.3867 27.8789C64.2773 27.8555 65.1797 27.8438 66.0938 27.8438C67.0312 27.8203 67.9922 27.8086 68.9766 27.8086C70.2891 27.8086 71.6133 27.832 72.9492 27.8789C74.2852 27.9023 75.6328 27.9375 76.9922 27.9844C77.3906 28.0078 77.6953 28.1602 77.9062 28.4414C78.1406 28.6992 78.2578 29.0039 78.2578 29.3555C78.2578 29.7305 78.1289 30.0352 77.8711 30.2695C77.6133 30.5039 77.3086 30.6211 76.957 30.6211C75.6211 30.6211 74.2852 30.5977 72.9492 30.5508C71.6367 30.5039 70.3359 30.4805 69.0469 30.4805C68.0625 30.4805 67.1016 30.4922 66.1641 30.5156C65.2266 30.5156 64.3008 30.5273 63.3867 30.5508C63.3867 30.8789 63.3867 31.1953 63.3867 31.5C63.4102 31.8047 63.4219 32.1211 63.4219 32.4492C63.4219 36.1055 62.8711 39.3633 61.7695 42.2227C60.668 45.0586 59.0508 47.4492 56.918 49.3945C54.8086 51.3398 52.207 52.8164 49.1133 53.8242C46.0195 54.832 42.4688 55.3359 38.4609 55.3359C35.5078 55.3359 32.8828 55.0664 30.5859 54.5273C28.3125 54.0117 26.3086 53.3203 24.5742 52.4531C22.8633 51.5859 21.3867 50.6133 20.1445 49.5352C18.9258 48.4336 17.9062 47.332 17.0859 46.2305C16.2656 45.1055 15.6094 44.0273 15.1172 42.9961C14.625 41.9414 14.2617 41.0391 14.0273 40.2891C14.0039 40.2188 13.9805 40.1602 13.957 40.1133C13.957 40.043 13.957 39.9727 13.957 39.9023C13.957 39.5508 14.0859 39.2461 14.3438 38.9883C14.6016 38.707 14.9297 38.5664 15.3281 38.5664C15.6094 38.5664 15.8555 38.6484 16.0664 38.8125C16.3008 38.9766 16.4648 39.1992 16.5586 39.4805C16.7695 40.1367 17.0859 40.9219 17.5078 41.8359C17.9297 42.75 18.5039 43.6992 19.2305 44.6836C19.9805 45.6445 20.8945 46.6055 21.9727 47.5664C23.0742 48.5273 24.3984 49.3828 25.9453 50.1328C27.5156 50.8828 29.3203 51.4922 31.3594 51.9609C33.4219 52.4297 35.7891 52.6641 38.4609 52.6641C45.8203 52.6641 51.375 50.9531 55.125 47.5312C58.8984 44.1094 60.7852 39.0586 60.7852 32.3789C60.7852 32.0977 60.7734 31.8164 60.75 31.5352C60.75 31.2305 60.75 30.9375 60.75 30.6562C58.3828 30.75 56.2031 30.8672 54.2109 31.0078C52.2188 31.125 50.4727 31.2539 48.9727 31.3945C47.4961 31.5117 46.3008 31.6172 45.3867 31.7109C44.4727 31.7812 43.9102 31.8164 43.6992 31.8164C43.3008 31.8164 42.9492 31.7109 42.6445 31.5C42.3398 31.2656 42.1875 30.9258 42.1875 30.4805C42.1875 30.1523 42.3047 29.8711 42.5391 29.6367C42.7734 29.3789 43.0547 29.2266 43.3828 29.1797C43.4062 29.1797 43.8516 29.1328 44.7188 29.0391C45.6094 28.9453 46.8281 28.8398 48.375 28.7227C49.9219 28.582 51.75 28.4531 53.8594 28.3359C55.9688 28.1953 58.2656 28.0781 60.75 27.9844C60.7969 22.8047 61.3359 18.4453 62.3672 14.9062C59.8125 14.5312 57.2109 14.0859 54.5625 13.5703C51.9141 13.0313 49.2773 12.4688 46.6523 11.8828C44.0273 11.2969 41.4375 10.7227 38.8828 10.1602C36.3516 9.57422 33.9141 9.04687 31.5703 8.57812C29.2266 8.10938 27.0234 7.73438 24.9609 7.45312C22.8984 7.17188 21.0234 7.03125 19.3359 7.03125C16.9688 7.03125 14.7656 7.27734 12.7266 7.76953C10.6875 8.23828 8.91797 8.92969 7.41797 9.84375C5.94141 10.7578 4.76953 11.8828 3.90234 13.2188C3.05859 14.5312 2.63672 16.0312 2.63672 17.7188C2.63672 18.8203 2.83594 19.8164 3.23438 20.707C3.65625 21.5742 4.125 22.3242 4.64062 22.957C5.15625 23.5664 5.63672 24.0469 6.08203 24.3984C6.52734 24.7266 6.77344 24.9023 6.82031 24.9258C7.03125 25.043 7.18359 25.207 7.27734 25.418C7.37109 25.6289 7.41797 25.8398 7.41797 26.0508C7.41797 26.4492 7.27734 26.7773 6.99609 27.0352C6.73828 27.2695 6.44531 27.3867 6.11719 27.3867C5.85938 27.3867 5.61328 27.3047 5.37891 27.1406C4.81641 26.7656 4.21875 26.2734 3.58594 25.6641C2.95312 25.0547 2.36719 24.3633 1.82812 23.5898C1.3125 22.793 0.878906 21.9023 0.527344 20.918C0.175781 19.9336 0 18.8672 0 17.7188C0 15.6094 0.492188 13.7344 1.47656 12.0938C2.48438 10.4531 3.85547 9.05859 5.58984 7.91016C7.32422 6.76172 9.36328 5.89453 11.707 5.30859C14.0742 4.69922 16.6289 4.39453 19.3711 4.39453C20.9883 4.39453 22.8281 4.54687 24.8906 4.85156C26.9531 5.13281 29.168 5.50781 31.5352 5.97656C33.9258 6.44531 36.4219 6.97266 39.0234 7.55859C41.6484 8.14453 44.3203 8.74219 47.0391 9.35156C49.7578 9.9375 52.4883 10.5 55.2305 11.0391C57.9727 11.5781 60.6562 12.0352 63.2812 12.4102C63.9375 10.582 64.875 9.01172 66.0938 7.69922C67.3359 6.36328 68.7422 5.27344 70.3125 4.42969C71.8828 3.58594 73.5469 2.96484 75.3047 2.56641C77.0859 2.16797 78.832 1.96875 80.543 1.96875ZM85.7812 7.27734C85.7812 6.71484 85.5938 6.26953 85.2188 5.94141C84.8672 5.58984 84.4219 5.32031 83.8828 5.13281C83.3438 4.92188 82.7695 4.78125 82.1602 4.71094C81.5742 4.64062 81.0352 4.60547 80.543 4.60547C79.418 4.60547 78.1641 4.72266 76.7812 4.95703C75.4219 5.19141 74.0625 5.61328 72.7031 6.22266C71.3672 6.83203 70.1016 7.66406 68.9062 8.71875C67.7344 9.77344 66.7734 11.1211 66.0234 12.7617C68.625 13.043 71.0273 13.1836 73.2305 13.1836C75.0352 13.1836 76.6992 13.043 78.2227 12.7617C79.7695 12.457 81.0938 12.0469 82.1953 11.5312C83.3203 11.0156 84.1992 10.3945 84.832 9.66797C85.4648 8.94141 85.7812 8.14453 85.7812 7.27734ZM143.93 29.5664C145.945 30.1289 147.656 30.7734 149.062 31.5C150.492 32.2266 151.688 32.9883 152.648 33.7852C153.633 34.5586 154.406 35.3555 154.969 36.1758C155.531 36.9961 155.965 37.7812 156.27 38.5312C156.574 39.2812 156.762 39.9844 156.832 40.6406C156.926 41.2734 156.973 41.8125 156.973 42.2578C156.973 43.8984 156.656 45.3633 156.023 46.6523C155.414 47.9414 154.582 49.0781 153.527 50.0625C152.473 51.0469 151.242 51.8789 149.836 52.5586C148.453 53.2383 147 53.7891 145.477 54.2109C143.953 54.6562 142.395 54.9727 140.801 55.1602C139.207 55.3711 137.695 55.4766 136.266 55.4766C133.945 55.4766 131.543 55.2422 129.059 54.7734C126.598 54.3047 124.102 53.543 121.57 52.4883C121.008 52.2539 120.727 51.8438 120.727 51.2578C120.727 50.8594 120.867 50.543 121.148 50.3086C121.43 50.0508 121.734 49.9219 122.062 49.9219C122.227 49.9219 122.402 49.957 122.59 50.0273C124.77 50.9414 127.008 51.6328 129.305 52.1016C131.602 52.5703 133.91 52.8047 136.23 52.8047C139.395 52.8047 142.113 52.5 144.387 51.8906C146.66 51.2812 148.523 50.4844 149.977 49.5C151.453 48.4922 152.543 47.3672 153.246 46.125C153.949 44.8594 154.301 43.582 154.301 42.293C154.301 40.8633 153.902 39.5391 153.105 38.3203C152.332 37.1016 151.219 36.0117 149.766 35.0508C148.336 34.0898 146.613 33.2695 144.598 32.5898C142.582 31.9102 140.344 31.4062 137.883 31.0781C136.266 31.3594 134.695 31.5586 133.172 31.6758C131.648 31.793 130.242 31.8516 128.953 31.8516H128.145C127.98 31.8516 127.828 31.8398 127.688 31.8164C126 35.8711 123.984 39.375 121.641 42.3281C119.32 45.2812 116.836 47.7305 114.188 49.6758C111.562 51.5977 108.855 53.0273 106.066 53.9648C103.301 54.8789 100.641 55.3359 98.0859 55.3359C95.4375 55.3359 93 54.9609 90.7734 54.2109C88.5703 53.4844 86.6719 52.4414 85.0781 51.082C83.4844 49.7227 82.2422 48.082 81.3516 46.1602C80.4609 44.2148 80.0156 42.0469 80.0156 39.6562C80.0156 37.1719 80.4961 34.6055 81.457 31.957C82.4414 29.2852 83.8945 26.5781 85.8164 23.8359C87.6445 21.2578 89.6719 18.9492 91.8984 16.9102C94.125 14.8477 96.457 13.043 98.8945 11.4961C101.355 9.94922 103.887 8.625 106.488 7.52344C109.09 6.42188 111.668 5.51953 114.223 4.81641C116.801 4.11328 119.309 3.60938 121.746 3.30469C124.207 2.97656 126.516 2.8125 128.672 2.8125C130.43 2.8125 132.105 2.87109 133.699 2.98828C135.293 3.10547 136.816 3.28125 138.27 3.51562C139.113 2.57812 139.793 1.91016 140.309 1.51172C140.824 1.08984 141.117 0.855469 141.188 0.808594C141.469 0.667969 141.715 0.597656 141.926 0.597656C142.254 0.597656 142.547 0.691406 142.805 0.878906C143.062 1.06641 143.191 1.33594 143.191 1.6875C143.191 2.15625 143.027 2.55469 142.699 2.88281C142.371 3.1875 141.926 3.60938 141.363 4.14844C145.652 5.20312 148.934 6.79687 151.207 8.92969C153.48 11.0391 154.617 13.6523 154.617 16.7695C154.617 18.4805 154.336 20.0156 153.773 21.375C153.211 22.7344 152.438 23.9297 151.453 24.9609C150.492 25.9922 149.355 26.8945 148.043 27.668C146.754 28.418 145.383 29.0508 143.93 29.5664ZM137.918 28.4062C138.949 28.2188 140.004 27.9727 141.082 27.668C142.184 27.3633 143.25 27 144.281 26.5781C145.336 26.1328 146.332 25.6172 147.27 25.0312C148.207 24.4219 149.016 23.7188 149.695 22.9219C150.398 22.1016 150.949 21.1875 151.348 20.1797C151.77 19.1719 151.98 18.0234 151.98 16.7344C151.98 14.1094 150.891 11.9414 148.711 10.2305C146.531 8.51953 143.402 7.25391 139.324 6.43359C138.152 7.88672 137.051 9.49219 136.02 11.25C134.988 13.0078 134.039 14.8359 133.172 16.7344C132.305 18.6094 131.52 20.5195 130.816 22.4648C130.137 24.3867 129.574 26.25 129.129 28.0547C129.598 28.0312 130.031 28.0195 130.43 28.0195C130.828 28.0195 131.168 28.0195 131.449 28.0195C132.363 28.0195 133.359 28.0547 134.438 28.125C135.516 28.1719 136.676 28.2656 137.918 28.4062ZM136.336 5.94141C135.141 5.77734 133.91 5.66016 132.645 5.58984C131.379 5.51953 130.055 5.48438 128.672 5.48438C126.609 5.48438 124.418 5.63672 122.098 5.94141C119.777 6.24609 117.398 6.72656 114.961 7.38281C112.523 8.03906 110.062 8.89453 107.578 9.94922C105.117 10.9805 102.715 12.2344 100.371 13.7109C98.0508 15.1641 95.8359 16.8633 93.7266 18.8086C91.6172 20.7539 89.6953 22.9453 87.9609 25.3828C86.2031 27.8672 84.8789 30.3164 83.9883 32.7305C83.0977 35.1445 82.6523 37.4414 82.6523 39.6211C82.6523 41.6602 83.0156 43.4883 83.7422 45.1055C84.4922 46.7227 85.5469 48.0938 86.9062 49.2188C88.2656 50.3203 89.8945 51.1758 91.793 51.7852C93.6914 52.3711 95.7891 52.6641 98.0859 52.6641C100.383 52.6641 102.773 52.2539 105.258 51.4336C107.742 50.5898 110.168 49.3125 112.535 47.6016C114.902 45.8672 117.152 43.6875 119.285 41.0625C121.418 38.4141 123.281 35.2734 124.875 31.6406C124.453 31.6406 124.02 31.5234 123.574 31.2891C123.129 31.0312 122.906 30.6328 122.906 30.0938C122.906 29.5312 123.176 29.1328 123.715 28.8984C124.254 28.6406 125.098 28.4297 126.246 28.2656C126.879 26.3438 127.523 24.4219 128.18 22.5C128.836 20.5781 129.562 18.6797 130.359 16.8047C131.156 14.9297 132.035 13.0898 132.996 11.2852C133.957 9.45703 135.07 7.67578 136.336 5.94141Z" fill="#B317CC"/>
</svg>
